<svg width="18" height="15" viewBox="0 0 18 15" fill="none" xmlns="http://www.w3.org/2000/svg">
<path d="M17.4631 1.35882L14.8069 13.7807C14.5985 14.6661 14.1168 14.9005 13.3615 14.4838L9.33811 11.5151L7.38498 13.3901C7.12457 13.6505 6.85113 13.7807 6.56467 13.7807L6.87717 9.67913L14.3381 2.96038C14.5204 2.77809 14.5204 2.67392 14.3381 2.64788C14.1819 2.5958 14.0126 2.63486 13.8303 2.76507L4.61155 8.58538L0.62717 7.33538C0.184462 7.20517 -0.0238715 7.00986 0.00217014 6.74944C0.0282118 6.48903 0.301649 6.26767 0.822483 6.08538L16.3303 0.0697545C16.7209 -0.0604539 17.0334 -0.00837053 17.2678 0.226004C17.5022 0.434338 17.5673 0.811942 17.4631 1.35882Z" fill="white" fill-opacity="0.5"/>
</svg>
