<svg width="22" height="15" viewBox="0 0 22 15" fill="none" xmlns="http://www.w3.org/2000/svg">
<path d="M20.8984 2.34375C20.9766 2.65625 21.0417 3.04688 21.0938 3.51562C21.1719 3.98438 21.224 4.45312 21.25 4.92188C21.276 5.36458 21.2891 5.78125 21.2891 6.17188C21.3151 6.5625 21.3281 6.88802 21.3281 7.14844V7.5C21.3281 9.84375 21.1849 11.5755 20.8984 12.6953C20.7682 13.138 20.5339 13.5286 20.1953 13.8672C19.8568 14.2057 19.4531 14.4401 18.9844 14.5703C18.4896 14.7005 17.5521 14.8047 16.1719 14.8828C14.7917 14.9349 13.5286 14.974 12.3828 15H10.6641C6.21094 15 3.4375 14.8568 2.34375 14.5703C1.32812 14.2839 0.690104 13.6589 0.429688 12.6953C0.299479 12.2005 0.195312 11.5234 0.117188 10.6641C0.0651042 9.77865 0.0260417 9.03646 0 8.4375V7.5C0 5.18229 0.143229 3.46354 0.429688 2.34375C0.559896 1.875 0.794271 1.47135 1.13281 1.13281C1.47135 0.794271 1.875 0.559896 2.34375 0.429688C2.83854 0.299479 3.77604 0.208333 5.15625 0.15625C6.53646 0.078125 7.79948 0.0260417 8.94531 0H10.6641C15.1172 0 17.8906 0.143229 18.9844 0.429688C19.4531 0.559896 19.8568 0.794271 20.1953 1.13281C20.5339 1.47135 20.7682 1.875 20.8984 2.34375ZM8.47656 10.7031L14.0625 7.5L8.47656 4.33594V10.7031Z" fill="white" fill-opacity="0.5"/>
</svg>
