<svg width="13" height="13" viewBox="0 0 13 13" fill="none" xmlns="http://www.w3.org/2000/svg">
<path d="M12.5714 9.92857C12.5714 9.86607 12.5714 9.80357 12.5446 9.74107C12.4821 9.55357 12.0446 9.35714 11.8661 9.26786C11.3571 8.98214 10.8393 8.70536 10.3393 8.41071C10.1071 8.26786 9.82143 8 9.54464 8C9 8 8.20536 9.61607 7.72322 9.61607C7.48214 9.61607 7.16964 9.39286 6.95536 9.26786C5.33036 8.36607 4.20536 7.24107 3.30357 5.61607C3.17857 5.40179 2.95536 5.08929 2.95536 4.84821C2.95536 4.36607 4.57143 3.57143 4.57143 3.02679C4.57143 2.75 4.30357 2.46429 4.16072 2.23214C3.86607 1.73214 3.58929 1.21429 3.30357 0.705358C3.21429 0.526786 3.01786 0.0892859 2.83036 0.0267859C2.76786 0 2.70536 0 2.64286 0C2.32143 0 1.69643 0.142858 1.40179 0.276786C0.964286 0.464286 0.678572 0.964286 0.455358 1.36607C0.169643 1.89286 0 2.42857 0 3.02679C0 3.85714 0.339286 4.60714 0.616072 5.36607C0.8125 5.91071 1.05357 6.4375 1.35714 6.92857C2.29464 8.44643 4.125 10.2768 5.64286 11.2143C6.13393 11.5179 6.66071 11.7589 7.20536 11.9554C7.96428 12.2321 8.71429 12.5714 9.54464 12.5714C10.1429 12.5714 10.6786 12.4018 11.2054 12.1161C11.6071 11.8929 12.1071 11.6071 12.2946 11.1696C12.4286 10.875 12.5714 10.25 12.5714 9.92857Z" fill="white"/>
</svg>
