<svg width="691" height="385" viewBox="0 0 691 385" fill="none" xmlns="http://www.w3.org/2000/svg">
<line x1="25.128" y1="0.432954" x2="194.313" y2="98.1122" stroke="white"/>
<line x1="532.004" y1="292.645" x2="690.089" y2="383.915" stroke="white"/>
<path d="M14.7891 194.991L17.7578 189.28H19.4609L15.5391 196.413V200.655H14.0391V196.413L10.1172 189.28H11.8359L14.7891 194.991ZM37.6853 195.335C37.6853 196.449 37.4978 197.423 37.1228 198.256C36.7478 199.085 36.2166 199.717 35.5291 200.155C34.8416 200.592 34.0395 200.811 33.1228 200.811C32.227 200.811 31.4327 200.592 30.74 200.155C30.0473 199.712 29.5082 199.085 29.1228 198.272C28.7426 197.454 28.5473 196.509 28.5369 195.436V194.616C28.5369 193.522 28.727 192.556 29.1072 191.717C29.4874 190.879 30.0239 190.238 30.7166 189.796C31.4145 189.348 32.2114 189.124 33.1072 189.124C34.0186 189.124 34.8207 189.345 35.5134 189.788C36.2114 190.225 36.7478 190.863 37.1228 191.702C37.4978 192.535 37.6853 193.506 37.6853 194.616V195.335ZM36.1931 194.6C36.1931 193.251 35.9223 192.217 35.3806 191.499C34.839 190.775 34.0811 190.413 33.1072 190.413C32.1593 190.413 31.4119 190.775 30.865 191.499C30.3233 192.217 30.0447 193.217 30.0291 194.499V195.335C30.0291 196.642 30.3025 197.671 30.8494 198.421C31.4015 199.165 32.1593 199.538 33.1228 199.538C34.0916 199.538 34.8416 199.186 35.3728 198.483C35.9041 197.775 36.1775 196.762 36.1931 195.444V194.6ZM56.1831 189.28V197.014C56.1779 198.087 55.8394 198.965 55.1675 199.647C54.5008 200.329 53.5946 200.712 52.4487 200.796L52.0503 200.811C50.8055 200.811 49.8133 200.475 49.0737 199.803C48.3342 199.131 47.9592 198.207 47.9487 197.03V189.28H49.4331V196.983C49.4331 197.806 49.6597 198.447 50.1128 198.905C50.5659 199.358 51.2118 199.585 52.0503 199.585C52.8993 199.585 53.5477 199.358 53.9956 198.905C54.4487 198.452 54.6753 197.814 54.6753 196.991V189.28H56.1831ZM70.9622 196.053H68.2903V200.655H66.7825V189.28H70.5481C71.8294 189.28 72.8138 189.572 73.5013 190.155C74.194 190.738 74.5403 191.587 74.5403 192.702C74.5403 193.41 74.3476 194.027 73.9622 194.553C73.582 195.079 73.0507 195.473 72.3684 195.733L75.0403 200.561V200.655H73.4309L70.9622 196.053ZM68.2903 194.827H70.595C71.3398 194.827 71.9309 194.634 72.3684 194.249C72.8111 193.863 73.0325 193.348 73.0325 192.702C73.0325 191.999 72.8216 191.46 72.3997 191.085C71.983 190.71 71.3789 190.519 70.5872 190.514H68.2903V194.827ZM98.5984 196.202V200.655H97.0984V189.28H101.294C102.539 189.28 103.512 189.598 104.216 190.233C104.924 190.868 105.278 191.71 105.278 192.756C105.278 193.861 104.932 194.712 104.239 195.311C103.552 195.905 102.565 196.202 101.278 196.202H98.5984ZM98.5984 194.975H101.294C102.096 194.975 102.71 194.788 103.137 194.413C103.565 194.033 103.778 193.486 103.778 192.772C103.778 192.095 103.565 191.553 103.137 191.147C102.71 190.741 102.124 190.53 101.38 190.514H98.5984V194.975ZM121.862 195.397H116.932V199.428H122.659V200.655H115.432V189.28H122.581V190.514H116.932V194.171H121.862V195.397ZM136.938 196.053H134.266V200.655H132.758V189.28H136.524C137.805 189.28 138.789 189.572 139.477 190.155C140.17 190.738 140.516 191.587 140.516 192.702C140.516 193.41 140.323 194.027 139.938 194.553C139.558 195.079 139.026 195.473 138.344 195.733L141.016 200.561V200.655H139.407L136.938 196.053ZM134.266 194.827H136.571C137.315 194.827 137.907 194.634 138.344 194.249C138.787 193.863 139.008 193.348 139.008 192.702C139.008 191.999 138.797 191.46 138.375 191.085C137.959 190.71 137.354 190.519 136.563 190.514H134.266V194.827ZM154.217 195.585C152.93 195.215 151.993 194.762 151.404 194.225C150.821 193.684 150.529 193.017 150.529 192.225C150.529 191.329 150.886 190.59 151.6 190.006C152.318 189.418 153.251 189.124 154.397 189.124C155.178 189.124 155.873 189.275 156.482 189.577C157.097 189.879 157.571 190.296 157.904 190.827C158.243 191.358 158.412 191.939 158.412 192.569H156.904C156.904 191.881 156.686 191.342 156.248 190.952C155.811 190.556 155.193 190.358 154.397 190.358C153.657 190.358 153.079 190.522 152.662 190.85C152.251 191.173 152.045 191.624 152.045 192.202C152.045 192.665 152.24 193.059 152.631 193.381C153.027 193.699 153.696 193.991 154.639 194.256C155.587 194.522 156.326 194.816 156.857 195.139C157.394 195.457 157.79 195.829 158.045 196.256C158.305 196.684 158.436 197.186 158.436 197.764C158.436 198.686 158.076 199.426 157.357 199.983C156.639 200.535 155.678 200.811 154.475 200.811C153.693 200.811 152.964 200.663 152.287 200.366C151.61 200.064 151.087 199.652 150.717 199.131C150.352 198.611 150.17 198.019 150.17 197.358H151.678C151.678 198.046 151.93 198.59 152.436 198.991C152.946 199.387 153.626 199.585 154.475 199.585C155.266 199.585 155.873 199.423 156.295 199.1C156.717 198.777 156.928 198.337 156.928 197.78C156.928 197.223 156.732 196.793 156.342 196.491C155.951 196.184 155.243 195.881 154.217 195.585ZM177.355 195.335C177.355 196.449 177.168 197.423 176.793 198.256C176.418 199.085 175.887 199.717 175.199 200.155C174.512 200.592 173.709 200.811 172.793 200.811C171.897 200.811 171.103 200.592 170.41 200.155C169.717 199.712 169.178 199.085 168.793 198.272C168.413 197.454 168.217 196.509 168.207 195.436V194.616C168.207 193.522 168.397 192.556 168.777 191.717C169.157 190.879 169.694 190.238 170.387 189.796C171.084 189.348 171.881 189.124 172.777 189.124C173.689 189.124 174.491 189.345 175.183 189.788C175.881 190.225 176.418 190.863 176.793 191.702C177.168 192.535 177.355 193.506 177.355 194.616V195.335ZM175.863 194.6C175.863 193.251 175.592 192.217 175.051 191.499C174.509 190.775 173.751 190.413 172.777 190.413C171.829 190.413 171.082 190.775 170.535 191.499C169.993 192.217 169.715 193.217 169.699 194.499V195.335C169.699 196.642 169.973 197.671 170.519 198.421C171.071 199.165 171.829 199.538 172.793 199.538C173.762 199.538 174.512 199.186 175.043 198.483C175.574 197.775 175.848 196.762 175.863 195.444V194.6ZM196.587 200.655H195.08L189.353 191.889V200.655H187.845V189.28H189.353L195.095 198.085V189.28H196.587V200.655ZM213.913 197.686H209.148L208.077 200.655H206.531L210.874 189.28H212.187L216.538 200.655H214.999L213.913 197.686ZM209.601 196.452H213.468L211.531 191.131L209.601 196.452ZM227.818 199.428H233.208V200.655H226.31V189.28H227.818V199.428Z" fill="white"/>
<mask id="mask0_844_14" style="mask-type:alpha" maskUnits="userSpaceOnUse" x="283" y="149" width="375" height="147">
<path d="M283.5 149.655H657.5V295.155H535.5L283.5 149.655Z" fill="#C4C4C4"/>
</mask>
<g mask="url(#mask0_844_14)">
<path d="M270.031 282.655H260.422V253.874H213.453V244.264H260.422V215.436H270.031V282.655ZM208.672 282.655H199.062V215.436H208.672V282.655ZM366.406 249.046C366.406 253.702 365.672 258.077 364.203 262.171C362.734 266.264 360.641 269.827 357.922 272.858C355.234 275.889 352 278.28 348.219 280.03C344.438 281.78 340.234 282.655 335.609 282.655H313.25C308.594 282.655 304.359 281.78 300.547 280.03C296.734 278.28 293.469 275.889 290.75 272.858C288.062 269.827 285.984 266.264 284.516 262.171C283.047 258.077 282.312 253.702 282.312 249.046C282.312 244.421 283.047 240.077 284.516 236.014C285.984 231.921 288.062 228.358 290.75 225.327C293.469 222.264 296.734 219.858 300.547 218.108C304.359 216.327 308.594 215.436 313.25 215.436H335.609C340.234 215.436 344.438 216.327 348.219 218.108C352 219.858 355.234 222.264 357.922 225.327C360.641 228.358 362.734 231.921 364.203 236.014C365.672 240.077 366.406 244.421 366.406 249.046ZM356.797 249.046C356.797 245.733 356.312 242.624 355.344 239.718C354.375 236.811 352.969 234.28 351.125 232.124C349.312 229.936 347.094 228.218 344.469 226.968C341.875 225.686 338.922 225.046 335.609 225.046H313.25C309.938 225.046 306.953 225.686 304.297 226.968C301.672 228.218 299.438 229.936 297.594 232.124C295.781 234.28 294.375 236.811 293.375 239.718C292.406 242.624 291.922 245.733 291.922 249.046C291.922 252.358 292.406 255.483 293.375 258.421C294.375 261.327 295.781 263.874 297.594 266.061C299.438 268.218 301.672 269.921 304.297 271.171C306.953 272.421 309.938 273.046 313.25 273.046H335.609C338.922 273.046 341.875 272.421 344.469 271.171C347.094 269.921 349.312 268.218 351.125 266.061C352.969 263.874 354.375 261.327 355.344 258.421C356.312 255.483 356.797 252.358 356.797 249.046ZM450.688 215.436L450.594 249.046C450.594 252.171 450.188 255.171 449.375 258.046C448.594 260.889 447.469 263.561 446 266.061C444.562 268.53 442.812 270.796 440.75 272.858C438.719 274.889 436.453 276.639 433.953 278.108C431.484 279.546 428.828 280.671 425.984 281.483C423.141 282.264 420.172 282.655 417.078 282.655H410C406.906 282.655 403.922 282.264 401.047 281.483C398.203 280.671 395.531 279.53 393.031 278.061C390.562 276.593 388.312 274.843 386.281 272.811C384.25 270.749 382.5 268.483 381.031 266.014C379.594 263.514 378.469 260.843 377.656 257.999C376.875 255.124 376.484 252.139 376.484 249.046V215.436H386.094V249.046C386.094 252.358 386.719 255.483 387.969 258.421C389.219 261.327 390.922 263.874 393.078 266.061C395.266 268.218 397.812 269.921 400.719 271.171C403.625 272.421 406.719 273.046 410 273.046H417.078C420.391 273.046 423.5 272.421 426.406 271.171C429.312 269.921 431.844 268.218 434 266.061C436.156 263.874 437.859 261.327 439.109 258.421C440.359 255.483 440.984 252.358 440.984 249.046V215.436H450.594H450.688ZM538.766 263.436C538.766 266.124 538.266 268.639 537.266 270.983C536.266 273.296 534.891 275.327 533.141 277.077C531.422 278.796 529.391 280.155 527.047 281.155C524.734 282.155 522.25 282.655 519.594 282.655H461.188V273.046H519.594C520.938 273.046 522.188 272.796 523.344 272.296C524.5 271.796 525.5 271.108 526.344 270.233C527.219 269.358 527.906 268.343 528.406 267.186C528.906 265.999 529.156 264.749 529.156 263.436C529.156 262.124 528.906 260.889 528.406 259.733C527.906 258.577 527.219 257.561 526.344 256.686C525.5 255.811 524.5 255.124 523.344 254.624C522.188 254.124 520.938 253.874 519.594 253.874H480.406C477.781 253.874 475.297 253.374 472.953 252.374C470.609 251.374 468.562 250.014 466.812 248.296C465.094 246.546 463.719 244.499 462.688 242.155C461.688 239.811 461.188 237.311 461.188 234.655C461.188 232.03 461.688 229.546 462.688 227.202C463.719 224.858 465.094 222.827 466.812 221.108C468.562 219.358 470.609 217.983 472.953 216.983C475.297 215.952 477.781 215.436 480.406 215.436H533.984V225.046H480.406C479.094 225.046 477.844 225.296 476.656 225.796C475.5 226.296 474.484 226.983 473.609 227.858C472.734 228.733 472.047 229.764 471.547 230.952C471.047 232.108 470.797 233.343 470.797 234.655C470.797 235.968 471.047 237.218 471.547 238.405C472.047 239.561 472.734 240.577 473.609 241.452C474.484 242.327 475.5 243.014 476.656 243.514C477.844 244.014 479.094 244.264 480.406 244.264H519.594C522.25 244.264 524.734 244.78 527.047 245.811C529.391 246.811 531.422 248.186 533.141 249.936C534.891 251.655 536.266 253.686 537.266 256.03C538.266 258.343 538.766 260.811 538.766 263.436ZM619.578 282.655H550.062V215.436H619.578V225.046H559.672V273.046H619.578V282.655ZM611.422 253.874H564.453V244.264H611.422V253.874Z" fill="white"/>
</g>
<mask id="mask1_844_14" style="mask-type:alpha" maskUnits="userSpaceOnUse" x="185" y="187" width="393" height="147">
<path d="M577.5 333.155L185 333.155V187.655H325L577.5 333.155Z" fill="#C4C4C4"/>
</mask>
<g mask="url(#mask1_844_14)">
<path d="M270.031 282.655H260.422V253.874H213.453V244.264H260.422V215.436H270.031V282.655ZM208.672 282.655H199.062V215.436H208.672V282.655ZM366.406 249.046C366.406 253.702 365.672 258.077 364.203 262.171C362.734 266.264 360.641 269.827 357.922 272.858C355.234 275.889 352 278.28 348.219 280.03C344.437 281.78 340.234 282.655 335.609 282.655H313.25C308.594 282.655 304.359 281.78 300.547 280.03C296.734 278.28 293.469 275.889 290.75 272.858C288.062 269.827 285.984 266.264 284.516 262.171C283.047 258.077 282.312 253.702 282.312 249.046C282.312 244.421 283.047 240.077 284.516 236.014C285.984 231.921 288.062 228.358 290.75 225.327C293.469 222.264 296.734 219.858 300.547 218.108C304.359 216.327 308.594 215.436 313.25 215.436H335.609C340.234 215.436 344.437 216.327 348.219 218.108C352 219.858 355.234 222.264 357.922 225.327C360.641 228.358 362.734 231.921 364.203 236.014C365.672 240.077 366.406 244.421 366.406 249.046ZM356.797 249.046C356.797 245.733 356.312 242.624 355.344 239.718C354.375 236.811 352.969 234.28 351.125 232.124C349.312 229.936 347.094 228.218 344.469 226.968C341.875 225.686 338.922 225.046 335.609 225.046H313.25C309.937 225.046 306.953 225.686 304.297 226.968C301.672 228.218 299.437 229.936 297.594 232.124C295.781 234.28 294.375 236.811 293.375 239.718C292.406 242.624 291.922 245.733 291.922 249.046C291.922 252.358 292.406 255.483 293.375 258.421C294.375 261.327 295.781 263.874 297.594 266.061C299.437 268.218 301.672 269.921 304.297 271.171C306.953 272.421 309.937 273.046 313.25 273.046H335.609C338.922 273.046 341.875 272.421 344.469 271.171C347.094 269.921 349.312 268.218 351.125 266.061C352.969 263.874 354.375 261.327 355.344 258.421C356.312 255.483 356.797 252.358 356.797 249.046ZM450.687 215.436L450.594 249.046C450.594 252.171 450.187 255.171 449.375 258.046C448.594 260.889 447.469 263.561 446 266.061C444.562 268.53 442.812 270.796 440.75 272.858C438.719 274.889 436.453 276.639 433.953 278.108C431.484 279.546 428.828 280.671 425.984 281.483C423.141 282.264 420.172 282.655 417.078 282.655H410C406.906 282.655 403.922 282.264 401.047 281.483C398.203 280.671 395.531 279.53 393.031 278.061C390.562 276.593 388.312 274.843 386.281 272.811C384.25 270.749 382.5 268.483 381.031 266.014C379.594 263.514 378.469 260.843 377.656 257.999C376.875 255.124 376.484 252.139 376.484 249.046V215.436H386.094V249.046C386.094 252.358 386.719 255.483 387.969 258.421C389.219 261.327 390.922 263.874 393.078 266.061C395.266 268.218 397.812 269.921 400.719 271.171C403.625 272.421 406.719 273.046 410 273.046H417.078C420.391 273.046 423.5 272.421 426.406 271.171C429.312 269.921 431.844 268.218 434 266.061C436.156 263.874 437.859 261.327 439.109 258.421C440.359 255.483 440.984 252.358 440.984 249.046V215.436H450.594H450.687ZM538.766 263.436C538.766 266.124 538.266 268.639 537.266 270.983C536.266 273.296 534.891 275.327 533.141 277.077C531.422 278.796 529.391 280.155 527.047 281.155C524.734 282.155 522.25 282.655 519.594 282.655H461.187V273.046H519.594C520.937 273.046 522.187 272.796 523.344 272.296C524.5 271.796 525.5 271.108 526.344 270.233C527.219 269.358 527.906 268.343 528.406 267.186C528.906 265.999 529.156 264.749 529.156 263.436C529.156 262.124 528.906 260.889 528.406 259.733C527.906 258.577 527.219 257.561 526.344 256.686C525.5 255.811 524.5 255.124 523.344 254.624C522.187 254.124 520.937 253.874 519.594 253.874H480.406C477.781 253.874 475.297 253.374 472.953 252.374C470.609 251.374 468.562 250.014 466.812 248.296C465.094 246.546 463.719 244.499 462.687 242.155C461.687 239.811 461.187 237.311 461.187 234.655C461.187 232.03 461.687 229.546 462.687 227.202C463.719 224.858 465.094 222.827 466.812 221.108C468.562 219.358 470.609 217.983 472.953 216.983C475.297 215.952 477.781 215.436 480.406 215.436H533.984V225.046H480.406C479.094 225.046 477.844 225.296 476.656 225.796C475.5 226.296 474.484 226.983 473.609 227.858C472.734 228.733 472.047 229.764 471.547 230.952C471.047 232.108 470.797 233.343 470.797 234.655C470.797 235.968 471.047 237.218 471.547 238.405C472.047 239.561 472.734 240.577 473.609 241.452C474.484 242.327 475.5 243.014 476.656 243.514C477.844 244.014 479.094 244.264 480.406 244.264H519.594C522.25 244.264 524.734 244.78 527.047 245.811C529.391 246.811 531.422 248.186 533.141 249.936C534.891 251.655 536.266 253.686 537.266 256.03C538.266 258.343 538.766 260.811 538.766 263.436ZM619.578 282.655H550.062V215.436H619.578V225.046H559.672V273.046H619.578V282.655ZM611.422 253.874H564.453V244.264H611.422V253.874Z" fill="white"/>
</g>
<mask id="mask2_844_14" style="mask-type:alpha" maskUnits="userSpaceOnUse" x="0" y="84" width="399" height="147">
<path d="M398.5 230.155L0 230.155V84.6549H146L398.5 230.155Z" fill="#C4C4C4"/>
</mask>
<g mask="url(#mask2_844_14)">
<path d="M91.2812 141.046C91.2812 145.702 90.5312 150.077 89.0312 154.171C87.5625 158.264 85.4688 161.827 82.75 164.858C80.0312 167.889 76.7656 170.28 72.9531 172.03C69.1719 173.78 64.9688 174.655 60.3438 174.655H26.4531V165.046H60.3438C63.6562 165.046 66.625 164.421 69.25 163.171C71.9062 161.921 74.1406 160.217 75.9531 158.061C77.7969 155.874 79.2031 153.327 80.1719 150.421C81.1719 147.483 81.6719 144.358 81.6719 141.046C81.6719 137.733 81.1719 134.624 80.1719 131.717C79.2031 128.811 77.7969 126.28 75.9531 124.124C74.1406 121.936 71.9062 120.217 69.25 118.967C66.625 117.686 63.6562 117.046 60.3438 117.046H21.6719V174.655H12.0625V107.436H60.3438C64.9688 107.436 69.1719 108.327 72.9531 110.108C76.7656 111.858 80.0312 114.264 82.75 117.327C85.4688 120.358 87.5625 123.921 89.0312 128.014C90.5312 132.077 91.2812 136.421 91.2812 141.046ZM181.141 174.655H168.156L148 155.436H118.562V145.967H157.141C159.141 145.967 161.016 145.592 162.766 144.842C164.516 144.061 166.031 143.014 167.312 141.702C168.625 140.389 169.656 138.858 170.406 137.108C171.156 135.327 171.531 133.436 171.531 131.436C171.531 129.436 171.156 127.561 170.406 125.811C169.656 124.061 168.625 122.546 167.312 121.264C166.031 119.952 164.516 118.921 162.766 118.171C161.016 117.421 159.141 117.046 157.141 117.046H113.172V174.655H103.562V107.436H157.141C160.453 107.436 163.562 108.077 166.469 109.358C169.375 110.608 171.906 112.327 174.062 114.514C176.25 116.671 177.969 119.202 179.219 122.108C180.5 125.014 181.141 128.124 181.141 131.436C181.141 134.436 180.625 137.28 179.594 139.967C178.562 142.624 177.141 145.014 175.328 147.139C173.516 149.233 171.375 150.983 168.906 152.389C166.469 153.764 163.828 154.686 160.984 155.155L181.141 174.655ZM262.984 174.655H193.469V107.436H262.984V117.046H203.078V165.046H262.984V174.655ZM254.828 145.874H207.859V136.264H254.828V145.874ZM351.344 174.655H341.734V155.436H288.109V145.874H341.734V117.046H307.281C304 117.046 300.906 117.686 298 118.967C295.094 120.217 292.562 121.936 290.406 124.124C288.25 126.28 286.531 128.811 285.25 131.717C284 134.624 283.375 137.733 283.375 141.046V174.655H273.766V141.046C273.766 137.952 274.156 134.983 274.938 132.139C275.75 129.264 276.875 126.592 278.312 124.124C279.781 121.624 281.531 119.358 283.562 117.327C285.625 115.264 287.891 113.499 290.359 112.03C292.859 110.561 295.531 109.436 298.375 108.655C301.219 107.842 304.188 107.436 307.281 107.436H351.344V174.655ZM415.844 174.655H406.234V141.046C406.234 137.733 405.609 134.624 404.359 131.717C403.109 128.811 401.391 126.28 399.203 124.124C397.047 121.936 394.5 120.217 391.562 118.967C388.656 117.686 385.547 117.046 382.234 117.046H377.078V174.655H367.469V107.436H382.234C385.297 107.436 388.234 107.842 391.047 108.655C393.891 109.436 396.547 110.546 399.016 111.983C401.484 113.421 403.734 115.139 405.766 117.139C407.797 119.139 409.562 121.358 411.062 123.796C412.531 121.358 414.281 119.139 416.312 117.139C418.344 115.139 420.594 113.421 423.062 111.983C425.531 110.546 428.172 109.436 430.984 108.655C433.828 107.842 436.781 107.436 439.844 107.436H454.656V174.655H445.047V117.046H439.844C436.531 117.046 433.422 117.686 430.516 118.967C427.609 120.217 425.062 121.936 422.875 124.124C420.719 126.28 419 128.811 417.719 131.717C416.469 134.624 415.844 137.733 415.844 141.046V174.655Z" fill="white"/>
</g>
<mask id="mask3_844_14" style="mask-type:alpha" maskUnits="userSpaceOnUse" x="147" y="70" width="367" height="147">
<path d="M147 70.6549H514V216.155H398.5L147 70.6549Z" fill="#C4C4C4"/>
</mask>
<g mask="url(#mask3_844_14)">
<path d="M91.2812 141.046C91.2812 145.702 90.5312 150.077 89.0312 154.171C87.5625 158.264 85.4688 161.827 82.75 164.858C80.0312 167.889 76.7656 170.28 72.9531 172.03C69.1719 173.78 64.9688 174.655 60.3438 174.655H26.4531V165.046H60.3438C63.6562 165.046 66.625 164.421 69.25 163.171C71.9062 161.921 74.1406 160.217 75.9531 158.061C77.7969 155.874 79.2031 153.327 80.1719 150.421C81.1719 147.483 81.6719 144.358 81.6719 141.046C81.6719 137.733 81.1719 134.624 80.1719 131.717C79.2031 128.811 77.7969 126.28 75.9531 124.124C74.1406 121.936 71.9062 120.217 69.25 118.967C66.625 117.686 63.6562 117.046 60.3438 117.046H21.6719V174.655H12.0625V107.436H60.3438C64.9688 107.436 69.1719 108.327 72.9531 110.108C76.7656 111.858 80.0312 114.264 82.75 117.327C85.4688 120.358 87.5625 123.921 89.0312 128.014C90.5312 132.077 91.2812 136.421 91.2812 141.046ZM181.141 174.655H168.156L148 155.436H118.562V145.967H157.141C159.141 145.967 161.016 145.592 162.766 144.842C164.516 144.061 166.031 143.014 167.312 141.702C168.625 140.389 169.656 138.858 170.406 137.108C171.156 135.327 171.531 133.436 171.531 131.436C171.531 129.436 171.156 127.561 170.406 125.811C169.656 124.061 168.625 122.546 167.312 121.264C166.031 119.952 164.516 118.921 162.766 118.171C161.016 117.421 159.141 117.046 157.141 117.046H113.172V174.655H103.562V107.436H157.141C160.453 107.436 163.562 108.077 166.469 109.358C169.375 110.608 171.906 112.327 174.062 114.514C176.25 116.671 177.969 119.202 179.219 122.108C180.5 125.014 181.141 128.124 181.141 131.436C181.141 134.436 180.625 137.28 179.594 139.967C178.562 142.624 177.141 145.014 175.328 147.139C173.516 149.233 171.375 150.983 168.906 152.389C166.469 153.764 163.828 154.686 160.984 155.155L181.141 174.655ZM262.984 174.655H193.469V107.436H262.984V117.046H203.078V165.046H262.984V174.655ZM254.828 145.874H207.859V136.264H254.828V145.874ZM351.344 174.655H341.734V155.436H288.109V145.874H341.734V117.046H307.281C304 117.046 300.906 117.686 298 118.967C295.094 120.217 292.562 121.936 290.406 124.124C288.25 126.28 286.531 128.811 285.25 131.717C284 134.624 283.375 137.733 283.375 141.046V174.655H273.766V141.046C273.766 137.952 274.156 134.983 274.938 132.139C275.75 129.264 276.875 126.592 278.312 124.124C279.781 121.624 281.531 119.358 283.562 117.327C285.625 115.264 287.891 113.499 290.359 112.03C292.859 110.561 295.531 109.436 298.375 108.655C301.219 107.842 304.188 107.436 307.281 107.436H351.344V174.655ZM415.844 174.655H406.234V141.046C406.234 137.733 405.609 134.624 404.359 131.717C403.109 128.811 401.391 126.28 399.203 124.124C397.047 121.936 394.5 120.217 391.562 118.967C388.656 117.686 385.547 117.046 382.234 117.046H377.078V174.655H367.469V107.436H382.234C385.297 107.436 388.234 107.842 391.047 108.655C393.891 109.436 396.547 110.546 399.016 111.983C401.484 113.421 403.734 115.139 405.766 117.139C407.797 119.139 409.562 121.358 411.062 123.796C412.531 121.358 414.281 119.139 416.312 117.139C418.344 115.139 420.594 113.421 423.062 111.983C425.531 110.546 428.172 109.436 430.984 108.655C433.828 107.842 436.781 107.436 439.844 107.436H454.656V174.655H445.047V117.046H439.844C436.531 117.046 433.422 117.686 430.516 118.967C427.609 120.217 425.062 121.936 422.875 124.124C420.719 126.28 419 128.811 417.719 131.717C416.469 134.624 415.844 137.733 415.844 141.046V174.655Z" fill="white"/>
</g>
</svg>
